# AST/ASF file generated using VICON BodyLanguage
# -----------------------------------------------
:version 1.10
:name VICON
:units
  mass 1.0
  length 0.45
  angle deg
:documentation
   .ast/.asf automatically generated from VICON data using
   VICON BodyBuilder and BodyLanguage model FoxedUp or BRILLIANT.MOD
:root
   order TX TY TZ RX RY RZ
   axis XYZ
   position 0 0 0  
   orientation 0 0 0 
:bonedata
  begin
     id 1 
     name lhipjoint
     direction 0.606768 -0.715223 0.346827 
     length 2.41543 
     axis 0 0 0  XYZ
  end
  begin
     id 2 
     name lfemur
     direction 0.34202 -0.939693 0  
     length 7.2778  
     axis 0 0 20  XYZ
    dof rx ry rz
    limits (-160.0 20.0)
           (-70.0 70.0)
           (-60.0 70.0)
  end
  begin
     id 3 
     name ltibia
     direction 0.34202 -0.939693 0   
     length 7.61811   
     axis 0 0 20   XYZ
    dof rx
    limits (-10.0 170.0)
  end
  begin
     id 4 
     name lfoot
     direction 0.0823924 -0.226371 0.97055   
     length 2.33618   
     axis -90 7.62852e-016 20   XYZ
    dof rx rz
    limits (-45.0 90.0)
           (-70.0 20.0)
  end
  begin
     id 5 
     name ltoes
     direction 1.53554e-011 -4.21934e-011 1   
     length 1.17015   
     axis -90 7.62852e-016 20   XYZ
    dof rx
    limits (-90.0 20.0)
  end
  begin
     id 6 
     name rhipjoint
     direction -0.6077 -0.714582 0.346516   
     length 2.4176  
     axis 0 0 0  XYZ 
  end
  begin
     id 7 
     name rfemur
     direction -0.34202 -0.939693 0   
     length 7.28127   
     axis 0 0 -20   XYZ
    dof rx ry rz
    limits (-160.0 20.0)
           (-70.0 70.0)
           (-70.0 60.0)
  end
  begin
     id 8 
     name rtibia
     direction -0.34202 -0.939693 0   
     length 7.77648   
     axis 0 0 -20   XYZ
    dof rx
    limits (-10.0 170.0)
 end
 begin
     id 9 
     name rfoot
     direction -0.0809463 -0.222398 0.97159   
     length 2.37533  
     axis -90 -7.62852e-016 -20   XYZ
    dof rx rz
    limits (-45.0 90.0)
           (-20.0 70.0)
  end
  begin
     id 10 
     name rtoes
     direction -1.53568e-011 -4.21714e-011 1   
     length 1.18972   
     axis -90 -7.62852e-016 -20   XYZ
    dof rx
    limits (-90.0 20.0)
  end
  begin
     id 11 
     name lowerback
     direction 0.010968 0.991932 -0.126297   
     length 2.21698   
     axis 0 0 0   XYZ
    dof rx ry rz
    limits (-20.0 45.0)
           (-30.0 30.0)
           (-30.0 30.0)
  end
  begin
     id 12 
     name upperback
     direction 0.0167007 0.997503 -0.0686276   
     length 2.22371   
     axis 0 0 0   XYZ
    dof rx ry rz
    limits (-20.0 45.0)
           (-30.0 30.0)
           (-30.0 30.0)
  end
  begin
     id 13 
     name thorax
     direction 0.0111721 0.999885 -0.0102878   
     length 2.25242   
     axis 0 0 0   XYZ
    dof rx ry rz
    limits (-20.0 45.0)
           (-30.0 30.0)
           (-30.0 30.0)
  end
  begin
     id 14 
     name lowerneck
     direction -0.0120265 0.990428 0.137508   
     length 1.57674   
     axis 0 0 0   XYZ
    dof rx ry rz
    limits (-20.0 45.0)
           (-30.0 30.0)
           (-30.0 30.0)
  end
  begin
     id 15 
     name upperneck
     direction 0.0175669 0.998907 0.0433089   
     length 1.5618   
     axis 0 0 0   XYZ
    dof rx ry rz
    limits (-20.0 45.0)
           (-30.0 30.0)
           (-30.0 30.0)
  end
  begin
     id 16
     name head
     direction 0.00754609 0.99997 0.00185367  
     length 1.60579  
     axis 0 0 0   XYZ
    dof rx ry rz
    limits (-20.0 45.0)
           (-30.0 30.0)
           (-30.0 30.0)
  end
  begin
     id 17 
     name lclavicle
     direction 0.885866 0.429166 -0.176231  
     length 3.44967  
     axis 0 0 0   XYZ
    dof ry rz
    limits (-20.0 10.0)
           (0.0 20.0)
  end
  begin
     id 18 
     name lhumerus
     direction 1 -4.48973e-011 -1.90255e-027   
     length 5.20607   
     axis 180 -30 -90   XYZ
    dof rx ry rz
    limits (-60.0 90.0)
           (-90.0 90.0)
           (-90.0 90.0)
  end
  begin
     id 19
     name lradius
     direction 1 -4.48956e-011 9.87925e-027   
     length 3.39961   
     axis 180 -30 -90   XYZ
    dof rx
    limits (-10.0 170.0)
  end
  begin
     id 20
     name lwrist
     direction 1 -4.48985e-011 1.73247e-026   
     length 1.6998   
     axis -9.60847e-015 90 90   XYZ
    dof ry
    limits (-180.0 0.0)
 end
  begin
     id 21 
     name lhand
     direction 1 -4.48798e-011 3.46119e-026   
     length 0.519693   
     axis -2.21073e-014 90 90   XYZ
    dof rx rz
    limits (-90.0 90.0)
           (-45.0 45.0)
  end
  begin
     id 22 
     name lfingers
     direction 1 -4.48938e-011 6.92797e-026   
     length 0.41899   
     axis -4.42155e-014 90 90   XYZ
    dof rx
    limits (0.0 90.0)
  end
  begin
     id 23
     name lthumb
     direction 0.707107 -6.34952e-011 0.707107   
     length 0.601588   
     axis -90 45 6.0103e-014   XYZ
    dof rx rz
    limits (-45.0 45.0)
           (-45.0 45.0)
  end
  begin
     id 24 
     name rclavicle
     direction -0.866736 0.456792 -0.200276   
     length 3.45032  
     axis 0 0 0   XYZ 
    dof ry rz
    limits (-10.0 20.0)
           (-20.0 0.0)
  end
  begin
     id 25 
     name rhumerus
     direction -1 -4.4897e-011 8.65094e-028  
     length 5.32214   
     axis 180 30 90   XYZ
    dof rx ry rz
    limits (-90.0 60.0)
           (-90.0 90.0)
           (-90.0 90.0)
  end
  begin
     id 26 
     name rradius
     direction -1 -4.48987e-011 1.08427e-026   
     length 3.51208   
     axis 180 30 90   XYZ
    dof rx
    limits (-10.0 170.0)
  end
  begin
     id 27 
     name rwrist
     direction -1 -4.48961e-011 1.73222e-026   
     length 1.75604   
     axis -9.60847e-015 -90 -90   XYZ
    dof ry
    limits (-180.0 0.0)
  end
  begin
     id 28
     name rhand
     direction -1 -4.48895e-011 3.46314e-026   
     length 0.586681   
     axis -2.21073e-014 -90 -90   XYZ
    dof rx rz
    limits (-90.0 90.0)
           (-45.0 45.0)
  end
  begin
     id 29
     name rfingers
     direction -1 -4.48968e-011 6.92916e-026   
     length 0.472997   
     axis -4.42155e-014 -90 -90   XYZ
    dof rx
    limits (0.0 90.0)
  end
  begin
     id 30
     name rthumb
     direction -0.707107 -6.34848e-011 0.707107   
     length 0.679133   
     axis -90 -45 -6.0103e-014   XYZ
    dof rx rz
    limits (-45.0 45.0)
           (-45.0 45.0)
  end
:hierarchy
  begin
    root lhipjoint rhipjoint lowerback
    lhipjoint lfemur
    lfemur ltibia
    ltibia lfoot
    lfoot ltoes
    rhipjoint rfemur
    rfemur rtibia
    rtibia rfoot
    rfoot rtoes
    lowerback upperback
    upperback thorax
    thorax lowerneck lclavicle rclavicle
    lowerneck upperneck
    upperneck head
    lclavicle lhumerus
    lhumerus lradius
    lradius lwrist
    lwrist lhand lthumb
    lhand lfingers
    rclavicle rhumerus
    rhumerus rradius
    rradius rwrist
    rwrist rhand rthumb
    rhand rfingers
  end

#!OML:ASF H:\Dans Jumps\Project 1\Capture day 1\Session 1\subject.ASF
:FULLY-SPECIFIED
:DEGREES
21
root 0.150065 17.5293 -14.3027 6.79796 0.882802 -1.438
lowerback -1.31932 -0.777627 0.859005
upperback 5.29288 -1.17338 1.73301
thorax 6.2507 -0.587436 1.24236
lowerneck -10.8967 0.00545723 -2.71442
upperneck 36.7343 0.186682 1.43142
head 14.4352 -0.106725 1.0996
rclavicle -4.96962e-016 -1.19271e-014
rhumerus -17.7559 -17.2125 -80.9531
rradius 25.5052
rwrist 32.4445
rhand -18.6037 -27.2765
rfingers 7.12502
rthumb 7.68766 -57.1167
lclavicle -4.96962e-016 -1.19271e-014
lhumerus -16.4432 -3.15588 89.5323
lradius 21.6569
lwrist 3.26623
lhand -23.1574 -3.41182
lfingers 7.12502
lthumb 3.2911 26.5425
rfemur -14.1356 -3.44097 19.7865
rtibia 21.5137
rfoot -13.5592 -1.51996
rtoes 7.69441
lfemur -13.9878 6.95133 -16.6923
ltibia 18.9935
lfoot -9.93638 3.90102
ltoes -11.0707
22
root 0.156134 17.5283 -14.2995 6.75087 0.868522 -1.44351
lowerback -1.35811 -0.782923 0.834797
upperback 5.28308 -1.18005 1.73401
thorax 6.26327 -0.591956 1.25605
lowerneck -10.8821 0.0273208 -2.70852
upperneck 36.7159 0.22424 1.41184
head 14.4223 -0.0923743 1.09579
rclavicle 1.59028e-015 1.19271e-015
rhumerus -17.8306 -17.267 -80.9917
rradius 25.5244
rwrist 32.4371
rhand -18.5913 -27.256
rfingers 7.12502
rthumb 7.69967 -57.0958
lclavicle 1.59028e-015 1.19271e-015
lhumerus -16.4105 -3.18858 89.5838
lradius 21.6042
lwrist 3.16875
lhand -23.1501 -3.40428
lfingers 7.12502
lthumb 3.29816 26.55
rfemur -14.0734 -3.38815 19.7651
rtibia 21.5187
rfoot -13.5712 -1.58578
rtoes 7.60666
lfemur -13.9115 6.97679 -16.6976
ltibia 18.9741
lfoot -9.96658 3.86479
ltoes -11.0491
23
root 0.162369 17.5273 -14.2967 6.71155 0.849437 -1.4486
lowerback -1.39762 -0.786903 0.810516
upperback 5.27092 -1.18488 1.73483
thorax 6.27374 -0.595571 1.2697
lowerneck -10.8682 0.0473496 -2.70075
upperneck 36.6921 0.26081 1.38612
head 14.407 -0.0789396 1.0889
rclavicle 7.95139e-015 7.15625e-015
rhumerus -17.9092 -17.3085 -81.0355
rradius 25.5573
rwrist 32.4079
rhand -18.5828 -27.2402
rfingers 7.12502
rthumb 7.70788 -57.0797
lclavicle 7.95139e-015 7.15625e-015
lhumerus -16.3855 -3.21296 89.629
lradius 21.563
lwrist 3.08051
lhand -23.1278 -3.38302
lfingers 7.12502
lthumb 3.31967 26.5709
rfemur -14.0225 -3.33319 19.7432
rtibia 21.5264
rfoot -13.584 -1.64903
rtoes 7.51557
lfemur -13.8459 7.00612 -16.7058
ltibia 18.9581
lfoot -9.99677 3.82993
ltoes -11.0236
24
root 0.168708 17.5265 -14.2943 6.68225 0.827837 -1.4537
lowerback -1.44013 -0.790142 0.788895
upperback 5.25634 -1.18876 1.73405
thorax 6.28324 -0.598522 1.28024
lowerneck -10.8563 0.065964 -2.69237
upperneck 36.6649 0.295615 1.35913
head 14.3907 -0.0663117 1.08109
rclavicle 6.75868e-015 -1.39149e-014
rhumerus -17.9915 -17.3496 -81.086
rradius 25.6033
rwrist 32.3681
rhand -18.5777 -27.2287
rfingers 7.12502
rthumb 7.71278 -57.0681
lclavicle 6.75868e-015 -1.39149e-014
lhumerus -16.3676 -3.23981 89.6674
lradius 21.5329
lwrist 3.01331
lhand -23.1046 -3.35783
lfingers 7.12502
lthumb 3.34209 26.5957
rfemur -13.9857 -3.27576 19.7217
rtibia 21.5362
rfoot -13.5956 -1.71162
rtoes 7.42442
lfemur -13.794 7.03624 -16.716
ltibia 18.9451
lfoot -10.0269 3.7995
ltoes -11.0017
25
root 0.175086 17.5259 -14.2924 6.66287 0.804977 -1.45926
lowerback -1.48385 -0.793149 0.768325
upperback 5.23946 -1.19231 1.73306
thorax 6.29099 -0.601253 1.28997
lowerneck -10.8474 0.0823282 -2.68697
upperneck 36.6359 0.327379 1.33364
head 14.3743 -0.0551794 1.07397
rclavicle -2.98177e-015 0
rhumerus -18.0717 -17.3968 -81.1433
rradius 25.6551
rwrist 32.3197
rhand -18.5705 -27.2279
rfingers 7.12502
rthumb 7.7197 -57.067
lclavicle -2.98177e-015 0
lhumerus -16.356 -3.27051 89.701
lradius 21.5163
lwrist 2.97533
lhand -23.0826 -3.32151
lfingers 7.12502
lthumb 3.36331 26.6317
rfemur -13.9628 -3.2196 19.7018
rtibia 21.5473
rfoot -13.605 -1.77322
rtoes 7.32271
lfemur -13.7567 7.06924 -16.7279
ltibia 18.9346
lfoot -10.0548 3.77159
ltoes -10.9936
26
root 0.181532 17.5254 -14.291 6.65052 0.779593 -1.46797
lowerback -1.52762 -0.795013 0.753784
upperback 5.22137 -1.19454 1.73112
thorax 6.29731 -0.60299 1.29542
lowerneck -10.8381 0.0965796 -2.6841
upperneck 36.6037 0.35527 1.31189
head 14.3564 -0.0455301 1.06821
rclavicle -1.31198e-014 -9.14409e-015
rhumerus -18.1536 -17.4386 -81.2099
rradius 25.7175
rwrist 32.2514
rhand -18.5729 -27.235
rfingers 7.12502
rthumb 7.71742 -57.0742
lclavicle -1.31198e-014 -9.14409e-015
lhumerus -16.3508 -3.3045 89.7281
lradius 21.5136
lwrist 2.96588
lhand -23.0621 -3.27447
lfingers 7.12502
lthumb 3.3831 26.6784
rfemur -13.9501 -3.16367 19.6859
rtibia 21.5588
rfoot -13.6126 -1.83197
rtoes 7.22537
lfemur -13.7295 7.10189 -16.7379
ltibia 18.9254
lfoot -10.0795 3.75053
ltoes -11.0033
27
root 0.188077 17.525 -14.29 6.64291 0.749383 -1.47443
lowerback -1.56893 -0.796889 0.737412
upperback 5.20219 -1.19658 1.72881
thorax 6.30107 -0.604722 1.30155
lowerneck -10.8366 0.111431 -2.6818
upperneck 36.5766 0.384469 1.28989
head 14.3428 -0.0354923 1.06275
rclavicle -3.8763e-015 7.95139e-016
rhumerus -18.2354 -17.4689 -81.2829
rradius 25.785
rwrist 32.1715
rhand -18.5832 -27.2465
rfingers 7.12502
rthumb 7.7075 -57.0861
lclavicle -3.8763e-015 7.95139e-016
lhumerus -16.3555 -3.33453 89.7508
lradius 21.523
lwrist 2.97576
lhand -23.0639 -3.25201
lfingers 7.12502
lthumb 3.38136 26.7009
rfemur -13.9447 -3.11031 19.6674
rtibia 21.5692
rfoot -13.618 -1.88398
rtoes 7.13352
lfemur -13.7085 7.13651 -16.7521
ltibia 18.9171
lfoot -10.1018 3.73419
ltoes -11.0165
28
root 0.194718 17.5247 -14.2891 6.63746 0.711346 -1.47966
lowerback -1.60732 -0.796903 0.720633
upperback 5.18278 -1.196 1.7255
thorax 6.30284 -0.605143 1.30709
lowerneck -10.8405 0.125578 -2.67906
upperneck 36.5533 0.412374 1.26859
head 14.3321 -0.0259049 1.05738
rclavicle -5.56597e-015 7.95139e-016
rhumerus -18.3159 -17.4912 -81.3618
rradius 25.8509
rwrist 32.0768
rhand -18.5988 -27.2638
rfingers 7.12502
rthumb 7.69238 -57.1039
lclavicle -5.56597e-015 7.95139e-016
lhumerus -16.3692 -3.36174 89.768
lradius 21.5417
lwrist 3.00119
lhand -23.0839 -3.25949
lfingers 7.12502
lthumb 3.36206 26.6937
rfemur -13.9429 -3.05641 19.647
rtibia 21.5774
rfoot -13.6198 -1.9299
rtoes 7.03427
lfemur -13.6891 7.17098 -16.7689
ltibia 18.9085
lfoot -10.1216 3.72689
ltoes -11.0252
29
root 0.201379 17.5244 -14.2885 6.63318 0.667569 -1.48472
lowerback -1.64249 -0.795529 0.704038
upperback 5.16324 -1.19345 1.7216
thorax 6.30256 -0.604573 1.3121
lowerneck -10.8457 0.138899 -2.67833
upperneck 36.5313 0.438051 1.25147
head 14.3224 -0.0170195 1.05378
rclavicle 1.64991e-014 -1.59028e-014
rhumerus -18.3942 -17.5098 -81.4446
rradius 25.9111
rwrist 31.9824
rhand -18.625 -27.2705
rfingers 7.12502
rthumb 7.66712 -57.1115
lclavicle 1.64991e-014 -1.59028e-014
lhumerus -16.3854 -3.38284 89.7802
lradius 21.5589
lwrist 3.02589
lhand -23.111 -3.28041
lfingers 7.12502
lthumb 3.33592 26.6732
rfemur -13.9426 -2.99805 19.626
rtibia 21.5833
rfoot -13.6189 -1.97371
rtoes 6.94205
lfemur -13.67 7.20548 -16.7863
ltibia 18.8982
lfoot -10.1379 3.72562
ltoes -11.0222
30
root 0.208059 17.5243 -14.2879 6.62807 0.621795 -1.48847
lowerback -1.67185 -0.793989 0.687239
upperback 5.14179 -1.19045 1.71654
thorax 6.29687 -0.603751 1.31611
lowerneck -10.8487 0.152232 -2.67623
upperneck 36.5138 0.462035 1.23771
head 14.3144 -0.00828848 1.05109
rclavicle 1.91827e-014 -2.06736e-014
rhumerus -18.4777 -17.5201 -81.5298
rradius 25.9694
rwrist 31.8888
rhand -18.6604 -27.2657
rfingers 7.12502
rthumb 7.63294 -57.1079
lclavicle 1.91827e-014 -2.06736e-014
lhumerus -16.4071 -3.40297 89.7864
lradius 21.5708
lwrist 3.04721
lhand -23.1418 -3.31994
lfingers 7.12502
lthumb 3.30619 26.6342
rfemur -13.941 -2.93949 19.6035
rtibia 21.5863
rfoot -13.6155 -2.01524
rtoes 6.84776
lfemur -13.648 7.23757 -16.8049
ltibia 18.8849
lfoot -10.1534 3.72958
ltoes -11.0058
31
root 0.214722 17.5241 -14.2875 6.62132 0.574119 -1.49082
lowerback -1.69581 -0.791659 0.669856
upperback 5.121 -1.18621 1.71035
thorax 6.28872 -0.602314 1.31944
lowerneck -10.8484 0.164619 -2.6749
upperneck 36.4974 0.483261 1.22789
head 14.3062 -0.000339462 1.04973
rclavicle 1.08338e-014 -1.23246e-014
rhumerus -18.5616 -17.5159 -81.6196
rradius 26.0287
rwrist 31.7865
rhand -18.6801 -27.2719
rfingers 7.12502
rthumb 7.61394 -57.1148
lclavicle 1.08338e-014 -1.23246e-014
lhumerus -16.4285 -3.42011 89.7863
lradius 21.5773
lwrist 3.0613
lhand -23.1629 -3.34841
lfingers 7.12502
lthumb 3.2858 26.606
rfemur -13.9373 -2.87958 19.5795
rtibia 21.5868
rfoot -13.6102 -2.05623
rtoes 6.75964
lfemur -13.6221 7.27015 -16.8248
ltibia 18.867
lfoot -10.1673 3.73661
ltoes -10.984
32
root 0.221389 17.5242 -14.2872 6.61501 0.527835 -1.49058
lowerback -1.71802 -0.789744 0.652729
upperback 5.10253 -1.18242 1.70194
thorax 6.28197 -0.601024 1.3203
lowerneck -10.8485 0.176508 -2.67469
upperneck 36.4826 0.501992 1.2237
head 14.2988 0.00710634 1.05053
rclavicle -1.23246e-014 -1.39149e-015
rhumerus -18.6374 -17.5118 -81.7154
rradius 26.081
rwrist 31.6908
rhand -18.7022 -27.2711
rfingers 7.12502
rthumb 7.59263 -57.1148
lclavicle -1.23246e-014 -1.39149e-015
lhumerus -16.4425 -3.43748 89.7786
lradius 21.5731
lwrist 3.06957
lhand -23.1752 -3.35273
lfingers 7.12502
lthumb 3.27389 26.6019
rfemur -13.9333 -2.82325 19.5527
rtibia 21.5853
rfoot -13.6041 -2.09331
rtoes 6.68673
lfemur -13.5946 7.30588 -16.8478
ltibia 18.8439
lfoot -10.1812 3.74092
ltoes -10.9671
33
root 0.228072 17.5243 -14.287 6.60853 0.483273 -1.48579
lowerback -1.73857 -0.789195 0.63077
upperback 5.0878 -1.18027 1.69357
thorax 6.27838 -0.60079 1.32381
lowerneck -10.8566 0.189232 -2.67105
upperneck 36.4753 0.522557 1.21604
head 14.2967 0.0152675 1.04971
rclavicle 3.97569e-015 8.34896e-015
rhumerus -18.696 -17.5162 -81.8136
rradius 26.1163
rwrist 31.6148
rhand -18.7149 -27.2621
rfingers 7.12502
rthumb 7.58033 -57.1062
lclavicle 3.97569e-015 8.34896e-015
lhumerus -16.4461 -3.44448 89.766
lradius 21.5573
lwrist 3.06627
lhand -23.1869 -3.32878
lfingers 7.12502
lthumb 3.26265 26.626
rfemur -13.9291 -2.77394 19.5214
rtibia 21.5828
rfoot -13.5977 -2.12665
rtoes 6.61012
lfemur -13.5644 7.34555 -16.8761
ltibia 18.8152
lfoot -10.1955 3.74104
ltoes -10.9544
34
root 0.23479 17.5246 -14.2869 6.60189 0.440389 -1.48018
lowerback -1.75926 -0.788994 0.609973
upperback 5.07641 -1.17869 1.68508
thorax 6.2784 -0.600783 1.32649
lowerneck -10.8693 0.202525 -2.6633
upperneck 36.4737 0.543724 1.20648
head 14.2984 0.0239388 1.04756
rclavicle -6.95746e-015 7.95139e-015
rhumerus -18.7411 -17.5268 -81.9142
rradius 26.1366
rwrist 31.5545
rhand -18.7185 -27.2543
rfingers 7.12502
rthumb 7.57684 -57.0986
lclavicle -6.95746e-015 7.95139e-015
lhumerus -16.4409 -3.44145 89.7481
lradius 21.5357
lwrist 3.06141
lhand -23.1805 -3.24414
lfingers 7.12502
lthumb 3.26874 26.7105
rfemur -13.9246 -2.73079 19.4895
rtibia 21.58
rfoot -13.5916 -2.15761
rtoes 6.52674
lfemur -13.5321 7.38866 -16.9055
ltibia 18.7821
lfoot -10.2104 3.73668
ltoes -10.9437
